o CubedSphere.obj
v -0.254630 0.245370 -0.254630
v 0.254630 0.245370 -0.254630
v -0.254630 0.754630 -0.254630
v 0.254630 0.754630 -0.254630
v -0.254630 0.245370 0.254630
v 0.254630 0.245370 0.254630
v -0.254630 0.754630 0.254630
v 0.254630 0.754630 0.254630
v 0.000000 0.500000 -0.439236
v 0.000000 0.500000 0.439236
v 0.000000 0.060764 -0.000000
v 0.439236 0.500000 0.000000
v -0.000000 0.939236 0.000000
v -0.439236 0.500000 0.000000
v 0.321615 0.500000 -0.321615
v 0.000000 0.178385 -0.321615
v -0.321615 0.500000 -0.321615
v -0.000000 0.821615 -0.321615
v 0.321615 0.500000 0.321615
v -0.000000 0.821615 0.321615
v -0.321615 0.500000 0.321615
v 0.000000 0.178385 0.321615
v -0.321615 0.178385 -0.000000
v 0.321615 0.178385 -0.000000
v 0.321615 0.821615 0.000000
v -0.321615 0.821615 0.000000
v 0.163194 0.663194 -0.381944
v 0.163194 0.336806 -0.381944
v -0.163194 0.336806 -0.381944
v -0.163194 0.663194 -0.381944
v 0.163194 0.336806 0.381944
v 0.163194 0.663194 0.381944
v -0.163194 0.663194 0.381944
v -0.163194 0.336806 0.381944
v 0.163194 0.118056 0.163194
v -0.163194 0.118056 0.163194
v -0.163194 0.118056 -0.163194
v 0.163194 0.118056 -0.163194
v 0.381944 0.663194 0.163194
v 0.381944 0.336806 0.163194
v 0.381944 0.336806 -0.163194
v 0.381944 0.663194 -0.163194
v -0.163194 0.881944 0.163194
v 0.163194 0.881944 0.163194
v 0.163194 0.881944 -0.163194
v -0.163194 0.881944 -0.163194
v -0.381944 0.336806 0.163194
v -0.381944 0.663194 0.163194
v -0.381944 0.663194 -0.163194
v -0.381944 0.336806 -0.163194
v 0.299479 0.651042 -0.299479
v 0.175347 0.500000 -0.409722
v 0.000000 0.675347 -0.409722
v 0.151042 0.799479 -0.299479
v 0.299479 0.348958 -0.299479
v 0.151042 0.200521 -0.299479
v 0.000000 0.324653 -0.409722
v -0.151042 0.200521 -0.299479
v -0.299479 0.348958 -0.299479
v -0.175347 0.500000 -0.409722
v -0.299479 0.651042 -0.299479
v -0.151042 0.799479 -0.299479
v 0.299479 0.348958 0.299479
v 0.175347 0.500000 0.409722
v 0.000000 0.324653 0.409722
v 0.151042 0.200521 0.299479
v 0.299479 0.651042 0.299479
v 0.151042 0.799479 0.299479
v 0.000000 0.675347 0.409722
v -0.151042 0.799479 0.299479
v -0.299479 0.651042 0.299479
v -0.175347 0.500000 0.409722
v -0.299479 0.348958 0.299479
v -0.151042 0.200521 0.299479
v 0.000000 0.090278 0.175347
v 0.175347 0.090278 0.000000
v 0.299479 0.200521 0.151042
v -0.299479 0.200521 0.151042
v -0.175347 0.090278 0.000000
v -0.299479 0.200521 -0.151042
v 0.000000 0.090278 -0.175347
v 0.299479 0.200521 -0.151042
v 0.409722 0.500000 0.175347
v 0.409722 0.675347 0.000000
v 0.299479 0.799479 0.151042
v 0.409722 0.324653 0.000000
v 0.409722 0.500000 -0.175347
v 0.299479 0.799479 -0.151042
v 0.000000 0.909722 0.175347
v -0.175347 0.909722 0.000000
v -0.299479 0.799479 0.151042
v 0.175347 0.909722 0.000000
v 0.000000 0.909722 -0.175347
v -0.299479 0.799479 -0.151042
v -0.409722 0.500000 0.175347
v -0.409722 0.324653 0.000000
v -0.409722 0.675347 0.000000
v -0.409722 0.500000 -0.175347
vn 0.496100 0.496100 -0.712580
vn 0.513446 0.188983 -0.837053
vn 0.170361 0.170361 -0.970543
vn 0.188983 0.513446 -0.837053
vn 0.513446 -0.188983 -0.837053
vn 0.496100 -0.496100 -0.712580
vn 0.188983 -0.513446 -0.837053
vn 0.170361 -0.170361 -0.970543
vn -0.170361 -0.170361 -0.970543
vn -0.188983 -0.513446 -0.837053
vn -0.496100 -0.496100 -0.712580
vn -0.513446 -0.188983 -0.837053
vn -0.188983 0.513446 -0.837053
vn -0.170361 0.170361 -0.970543
vn -0.513446 0.188983 -0.837053
vn -0.496100 0.496100 -0.712580
vn 0.496100 -0.496100 0.712580
vn 0.513446 -0.188983 0.837053
vn 0.170361 -0.170361 0.970543
vn 0.188983 -0.513446 0.837053
vn 0.513446 0.188983 0.837053
vn 0.496100 0.496100 0.712580
vn 0.188983 0.513446 0.837053
vn 0.170361 0.170361 0.970543
vn -0.170361 0.170361 0.970543
vn -0.188983 0.513446 0.837053
vn -0.496100 0.496100 0.712580
vn -0.513446 0.188983 0.837053
vn -0.188983 -0.513446 0.837053
vn -0.170361 -0.170361 0.970543
vn -0.513446 -0.188983 0.837053
vn -0.496100 -0.496100 0.712580
vn 0.496100 -0.712580 0.496100
vn 0.188983 -0.837053 0.513446
vn 0.170361 -0.970543 0.170361
vn 0.513446 -0.837054 0.188983
vn -0.188983 -0.837053 0.513446
vn -0.496100 -0.712580 0.496100
vn -0.513446 -0.837053 0.188983
vn -0.170361 -0.970543 0.170361
vn -0.170361 -0.970543 -0.170361
vn -0.513446 -0.837053 -0.188983
vn -0.496100 -0.712580 -0.496100
vn -0.188983 -0.837053 -0.513446
vn 0.513446 -0.837053 -0.188983
vn 0.170361 -0.970543 -0.170361
vn 0.188983 -0.837053 -0.513446
vn 0.496100 -0.712580 -0.496100
vn 0.712580 0.496100 0.496100
vn 0.837053 0.188983 0.513446
vn 0.970543 0.170361 0.170361
vn 0.837053 0.513446 0.188983
vn 0.837053 -0.188983 0.513446
vn 0.712580 -0.496100 0.496100
vn 0.837053 -0.513446 0.188983
vn 0.970543 -0.170361 0.170361
vn 0.970543 -0.170361 -0.170361
vn 0.837053 -0.513446 -0.188983
vn 0.712580 -0.496100 -0.496100
vn 0.837053 -0.188983 -0.513446
vn 0.837053 0.513446 -0.188983
vn 0.970543 0.170361 -0.170361
vn 0.837053 0.188983 -0.513446
vn 0.712580 0.496100 -0.496100
vn -0.496100 0.712580 0.496100
vn -0.188983 0.837054 0.513446
vn -0.170361 0.970543 0.170361
vn -0.513446 0.837054 0.188983
vn 0.188983 0.837054 0.513446
vn 0.496100 0.712580 0.496100
vn 0.513446 0.837054 0.188983
vn 0.170361 0.970543 0.170361
vn 0.170361 0.970543 -0.170361
vn 0.513446 0.837054 -0.188983
vn 0.496100 0.712580 -0.496100
vn 0.188983 0.837054 -0.513446
vn -0.513446 0.837054 -0.188983
vn -0.170361 0.970543 -0.170361
vn -0.188983 0.837054 -0.513446
vn -0.496100 0.712580 -0.496100
vn -0.712580 -0.496100 0.496100
vn -0.837053 -0.188983 0.513446
vn -0.970543 -0.170361 0.170361
vn -0.837053 -0.513446 0.188983
vn -0.837053 0.188983 0.513446
vn -0.712580 0.496100 0.496100
vn -0.837053 0.513446 0.188983
vn -0.970543 0.170361 0.170361
vn -0.970543 0.170361 -0.170361
vn -0.837054 0.513446 -0.188983
vn -0.712580 0.496100 -0.496100
vn -0.837053 0.188983 -0.513446
vn -0.837053 -0.513446 -0.188983
vn -0.970543 -0.170361 -0.170361
vn -0.837053 -0.188983 -0.513446
vn -0.712580 -0.496100 -0.496100
vt 0.747525 0.623762
vt 0.747525 0.561881
vt 0.809406 0.561881
vt 0.809406 0.623762
vt 0.747525 0.500000
vt 0.809406 0.500000
vt 0.871287 0.500000
vt 0.871287 0.561881
vt 0.871287 0.623762
vt 0.747525 0.438119
vt 0.809406 0.438119
vt 0.747525 0.376238
vt 0.809406 0.376238
vt 0.871287 0.376238
vt 0.871287 0.438119
vt 0.933168 0.438119
vt 0.933168 0.500000
vt 0.933168 0.376238
vt 0.995049 0.376238
vt 0.995049 0.438119
vt 0.995049 0.500000
vt 0.933168 0.561881
vt 0.933168 0.623762
vt 0.995049 0.561881
vt 0.995049 0.623762
vt 0.500000 0.376238
vt 0.500000 0.438119
vt 0.438119 0.438119
vt 0.438119 0.376238
vt 0.500000 0.500000
vt 0.438119 0.500000
vt 0.376238 0.500000
vt 0.376238 0.438119
vt 0.376238 0.376238
vt 0.500000 0.561881
vt 0.438119 0.561881
vt 0.500000 0.623762
vt 0.438119 0.623762
vt 0.376238 0.623762
vt 0.376238 0.561881
vt 0.314356 0.561881
vt 0.314356 0.500000
vt 0.314356 0.623762
vt 0.252475 0.623762
vt 0.252475 0.561881
vt 0.252475 0.500000
vt 0.314356 0.438119
vt 0.314356 0.376238
vt 0.252475 0.438119
vt 0.252475 0.376238
vt 0.438119 0.314356
vt 0.500000 0.314356
vt 0.376238 0.314356
vt 0.376238 0.252475
vt 0.438119 0.252475
vt 0.500000 0.252475
vt 0.314356 0.314356
vt 0.252475 0.314356
vt 0.252475 0.252475
vt 0.314356 0.252475
vt 0.314356 0.190594
vt 0.376238 0.190594
vt 0.252475 0.190594
vt 0.252475 0.128713
vt 0.314356 0.128713
vt 0.376238 0.128713
vt 0.438119 0.190594
vt 0.500000 0.190594
vt 0.438119 0.128713
vt 0.500000 0.128713
vt 0.561881 0.561881
vt 0.561881 0.623762
vt 0.561881 0.500000
vt 0.623762 0.500000
vt 0.623762 0.561881
vt 0.623762 0.623762
vt 0.561881 0.438119
vt 0.561881 0.376238
vt 0.623762 0.376238
vt 0.623762 0.438119
vt 0.685644 0.438119
vt 0.685644 0.500000
vt 0.685644 0.376238
vt 0.685644 0.561881
vt 0.685644 0.623762
vt 0.314356 0.685644
vt 0.252475 0.685644
vt 0.376238 0.685644
vt 0.376238 0.747525
vt 0.314356 0.747525
vt 0.252475 0.747525
vt 0.438119 0.685644
vt 0.500000 0.685644
vt 0.500000 0.747525
vt 0.438119 0.747525
vt 0.438119 0.809406
vt 0.376238 0.809406
vt 0.500000 0.809406
vt 0.500000 0.871287
vt 0.438119 0.871287
vt 0.376238 0.871287
vt 0.314356 0.809406
vt 0.252475 0.809406
vt 0.314356 0.871287
vt 0.252475 0.871287
vt 0.190594 0.438119
vt 0.190594 0.376238
vt 0.190594 0.500000
vt 0.128713 0.500000
vt 0.128713 0.438119
vt 0.128713 0.376238
vt 0.190594 0.561881
vt 0.190594 0.623762
vt 0.128713 0.623762
vt 0.128713 0.561881
vt 0.066832 0.561881
vt 0.066832 0.500000
vt 0.066832 0.623762
vt 0.004950 0.623762
vt 0.004950 0.561881
vt 0.004950 0.500000
vt 0.066832 0.438119
vt 0.066832 0.376238
vt 0.004950 0.438119
vt 0.004950 0.376238
g CubedSphere
f 4/1/1 51/2/1 27/3/1 54/4/1 
f 51/2/2 15/5/2 52/6/2 27/3/2 
f 27/3/3 52/6/3 9/7/3 53/8/3 
f 54/4/4 27/3/4 53/8/4 18/9/4 
f 15/5/5 55/10/5 28/11/5 52/6/5 
f 55/10/6 2/12/6 56/13/6 28/11/6 
f 28/11/7 56/13/7 16/14/7 57/15/7 
f 52/6/8 28/11/8 57/15/8 9/7/8 
f 9/7/9 57/15/9 29/16/9 60/17/9 
f 57/15/10 16/14/10 58/18/10 29/16/10 
f 29/16/11 58/18/11 1/19/11 59/20/11 
f 60/17/12 29/16/12 59/20/12 17/21/12 
f 18/9/13 53/8/13 30/22/13 62/23/13 
f 53/8/14 9/7/14 60/17/14 30/22/14 
f 30/22/15 60/17/15 17/21/15 61/24/15 
f 62/23/16 30/22/16 61/24/16 3/25/16 
f 6/26/17 63/27/17 31/28/17 66/29/17 
f 63/27/18 19/30/18 64/31/18 31/28/18 
f 31/28/19 64/31/19 10/32/19 65/33/19 
f 66/29/20 31/28/20 65/33/20 22/34/20 
f 19/30/21 67/35/21 32/36/21 64/31/21 
f 67/35/22 8/37/22 68/38/22 32/36/22 
f 32/36/23 68/38/23 20/39/23 69/40/23 
f 64/31/24 32/36/24 69/40/24 10/32/24 
f 10/32/25 69/40/25 33/41/25 72/42/25 
f 69/40/26 20/39/26 70/43/26 33/41/26 
f 33/41/27 70/43/27 7/44/27 71/45/27 
f 72/42/28 33/41/28 71/45/28 21/46/28 
f 22/34/29 65/33/29 34/47/29 74/48/29 
f 65/33/30 10/32/30 72/42/30 34/47/30 
f 34/47/31 72/42/31 21/46/31 73/49/31 
f 74/48/32 34/47/32 73/49/32 5/50/32 
f 6/26/33 66/29/33 35/51/33 77/52/33 
f 66/29/34 22/34/34 75/53/34 35/51/34 
f 35/51/35 75/53/35 11/54/35 76/55/35 
f 77/52/36 35/51/36 76/55/36 24/56/36 
f 22/34/37 74/48/37 36/57/37 75/53/37 
f 74/48/38 5/50/38 78/58/38 36/57/38 
f 36/57/39 78/58/39 23/59/39 79/60/39 
f 75/53/40 36/57/40 79/60/40 11/54/40 
f 11/54/41 79/60/41 37/61/41 81/62/41 
f 79/60/42 23/59/42 80/63/42 37/61/42 
f 37/61/43 80/63/43 1/64/43 58/65/43 
f 81/62/44 37/61/44 58/65/44 16/66/44 
f 24/56/45 76/55/45 38/67/45 82/68/45 
f 76/55/46 11/54/46 81/62/46 38/67/46 
f 38/67/47 81/62/47 16/66/47 56/69/47 
f 82/68/48 38/67/48 56/69/48 2/70/48 
f 8/37/49 67/35/49 39/71/49 85/72/49 
f 67/35/50 19/30/50 83/73/50 39/71/50 
f 39/71/51 83/73/51 12/74/51 84/75/51 
f 85/72/52 39/71/52 84/75/52 25/76/52 
f 19/30/53 63/27/53 40/77/53 83/73/53 
f 63/27/54 6/26/54 77/78/54 40/77/54 
f 40/77/55 77/78/55 24/79/55 86/80/55 
f 83/73/56 40/77/56 86/80/56 12/74/56 
f 12/74/57 86/80/57 41/81/57 87/82/57 
f 86/80/58 24/79/58 82/83/58 41/81/58 
f 41/81/59 82/83/59 2/12/59 55/10/59 
f 87/82/60 41/81/60 55/10/60 15/5/60 
f 25/76/61 84/75/61 42/84/61 88/85/61 
f 84/75/62 12/74/62 87/82/62 42/84/62 
f 42/84/63 87/82/63 15/5/63 51/2/63 
f 88/85/64 42/84/64 51/2/64 4/1/64 
f 7/44/65 70/43/65 43/86/65 91/87/65 
f 70/43/66 20/39/66 89/88/66 43/86/66 
f 43/86/67 89/88/67 13/89/67 90/90/67 
f 91/87/68 43/86/68 90/90/68 26/91/68 
f 20/39/69 68/38/69 44/92/69 89/88/69 
f 68/38/70 8/37/70 85/93/70 44/92/70 
f 44/92/71 85/93/71 25/94/71 92/95/71 
f 89/88/72 44/92/72 92/95/72 13/89/72 
f 13/89/73 92/95/73 45/96/73 93/97/73 
f 92/95/74 25/94/74 88/98/74 45/96/74 
f 45/96/75 88/98/75 4/99/75 54/100/75 
f 93/97/76 45/96/76 54/100/76 18/101/76 
f 26/91/77 90/90/77 46/102/77 94/103/77 
f 90/90/78 13/89/78 93/97/78 46/102/78 
f 46/102/79 93/97/79 18/101/79 62/104/79 
f 94/103/80 46/102/80 62/104/80 3/105/80 
f 5/50/81 73/49/81 47/106/81 78/107/81 
f 73/49/82 21/46/82 95/108/82 47/106/82 
f 47/106/83 95/108/83 14/109/83 96/110/83 
f 78/107/84 47/106/84 96/110/84 23/111/84 
f 21/46/85 71/45/85 48/112/85 95/108/85 
f 71/45/86 7/44/86 91/113/86 48/112/86 
f 48/112/87 91/113/87 26/114/87 97/115/87 
f 95/108/88 48/112/88 97/115/88 14/109/88 
f 14/109/89 97/115/89 49/116/89 98/117/89 
f 97/115/90 26/114/90 94/118/90 49/116/90 
f 49/116/91 94/118/91 3/119/91 61/120/91 
f 98/117/92 49/116/92 61/120/92 17/121/92 
f 23/111/93 96/110/93 50/122/93 80/123/93 
f 96/110/94 14/109/94 98/117/94 50/122/94 
f 50/122/95 98/117/95 17/121/95 59/124/95 
f 80/123/96 50/122/96 59/124/96 1/125/96 
